<svg xmlns="http://www.w3.org/2000/svg" xmlns:xlink="http://www.w3.org/1999/xlink" preserveAspectRatio="none" width="19" height="19"><defs><path fill="#00C000" d="M8.3 3.4q-.003-1.407-1-2.4-.993-.996-2.4-1-1.407.004-2.4 1-.998.993-1 2.4.002 1.407 1 2.4.993.984 2.4.95-1.661.183-3.2 2.35-1.762 2.507-1.7 5.75.025 1.063 5.15 1.15 5.116.083 5.05-.95-.189-3.326-1.75-5.85-1.453-2.424-3.3-2.45 1.254-.06 2.15-.95.997-.993 1-2.4z" id="c"/><path fill="red" d="M8.3 3.4q-.003-1.407-1-2.4-.993-.996-2.4-1-1.407.004-2.4 1-.998.993-1 2.4.002 1.407 1 2.4.993.984 2.4.95-1.661.183-3.2 2.35-1.762 2.507-1.7 5.75.025 1.063 5.15 1.15 5.116.083 5.05-.95-.189-3.326-1.75-5.85-1.453-2.424-3.3-2.45 1.254-.06 2.15-.95.997-.993 1-2.4z" id="g"/><path fill="#55F" d="M8.3 3.4q-.003-1.407-1-2.4-.993-.996-2.4-1-1.407.004-2.4 1-.998.993-1 2.4.002 1.407 1 2.4.993.984 2.4.95-1.661.183-3.2 2.35-1.762 2.507-1.7 5.75.025 1.063 5.15 1.15 5.116.083 5.05-.95-.189-3.326-1.75-5.85-1.453-2.424-3.3-2.45 1.254-.06 2.15-.95.997-.993 1-2.4z" id="k"/><path fill="#F90" d="M8.3 3.4q-.003-1.407-1-2.4-.993-.996-2.4-1-1.407.004-2.4 1-.998.993-1 2.4.002 1.407 1 2.4.993.984 2.4.95-1.661.183-3.2 2.35-1.762 2.507-1.7 5.75.025 1.063 5.15 1.15 5.116.083 5.05-.95-.189-3.326-1.75-5.85-1.453-2.424-3.3-2.45 1.254-.06 2.15-.95.997-.993 1-2.4z" id="o"/><path id="e" stroke="#FFF" stroke-width="1" stroke-linejoin="round" stroke-linecap="round" fill="none" d="M3.7 3.95Q3.9 2.65 5 2.1M2.7 14.9q.3-4.25 2.7-5.8"/><path id="f" stroke="#000" stroke-width="1" stroke-linejoin="round" stroke-linecap="round" fill="none" d="M5.45 7.3H5.4"/><path id="i" stroke="#FFF" stroke-width="1" stroke-linejoin="round" stroke-linecap="round" fill="none" d="M3.7 3.95Q3.9 2.65 5 2.1M2.7 14.9q.3-4.25 2.7-5.8"/><path id="j" stroke="#000" stroke-width="1" stroke-linejoin="round" stroke-linecap="round" fill="none" d="M5.45 7.3H5.4"/><path id="m" stroke="#FFF" stroke-width="1" stroke-linejoin="round" stroke-linecap="round" fill="none" d="M3.7 3.95Q3.9 2.65 5 2.1M2.7 14.9q.3-4.25 2.7-5.8"/><path id="n" stroke="#000" stroke-width="1" stroke-linejoin="round" stroke-linecap="round" fill="none" d="M5.45 7.3H5.4"/><path id="q" stroke="#FFF" stroke-width="1" stroke-linejoin="round" stroke-linecap="round" fill="none" d="M3.7 3.95Q3.9 2.65 5 2.1M2.7 14.9q.3-4.25 2.7-5.8"/><path id="r" stroke="#000" stroke-width="1" stroke-linejoin="round" stroke-linecap="round" fill="none" d="M5.45 7.3H5.4"/><g id="d"><path fill-opacity=".651" d="M7.95 1.3Q6.902.25 5.4.25 3.898.25 2.8 1.3 1.75 2.398 1.75 3.9T2.8 6.45q.66.662 1.45.9Q3.097 7.942 2 9.5.203 12.014.25 15.4q.015 1.25 5.4 1.35 2.577.046 3.85-.2 1.538-.279 1.45-1v-.05q-.198-3.384-1.75-5.9-1.09-1.791-2.4-2.35.65-.248 1.15-.8 1.1-1.048 1.1-2.55 0-1.502-1.1-2.6M5.4.75q1.298 0 2.2.9.95.952.95 2.25T7.6 6.1q-.802.848-1.9.95v.5q1.68.04 3.05 2.3 1.498 2.434 1.7 5.7-.067.334-1.05.5-1.228.254-3.75.2-4.82-.088-4.9-.85-.053-3.214 1.65-5.6 1.46-2.07 3-2.25V7.3l-.05-.25q-1.257-.009-2.2-.95-.9-.902-.9-2.2t.9-2.25q.952-.9 2.25-.9m.15 6.35H5.5q-.048.1-.05.2.003.103.05.15l.05.05.05-.05q.06-.05.05-.15-.003-.103-.1-.2z"/><path fill="url(#a)" d="M5.45 7.3H5.4v.25q-1.54.18-3 2.25Q.697 12.186.75 15.4q.08.762 4.9.85 2.522.054 3.75-.2.983-.166 1.05-.5-.202-3.266-1.7-5.7-1.37-2.26-3.05-2.3V7.3h-.05q.01.1-.05.15l-.05.05-.05-.05q-.047-.047-.05-.15M2.7 14.9q.3-4.25 2.7-5.8-2.4 1.55-2.7 5.8z"/><path fill="url(#b)" d="M7.6 1.65q-.902-.9-2.2-.9t-2.25.9q-.9.952-.9 2.25t.9 2.2q.943.941 2.2.95l.05.25h.05q.002-.1.05-.2h.05q.097.097.1.2h.05v-.25q1.098-.102 1.9-.95.95-.902.95-2.2T7.6 1.65m-3.9 2.3Q3.9 2.65 5 2.1q-1.1.55-1.3 1.85z"/></g><g id="h"><path fill-opacity=".651" d="M7.95 1.3Q6.902.25 5.4.25 3.898.25 2.8 1.3 1.75 2.398 1.75 3.9T2.8 6.45q.66.662 1.45.9Q3.097 7.942 2 9.5.203 12.014.25 15.4q.015 1.25 5.4 1.35 2.577.046 3.85-.2 1.538-.279 1.45-1v-.05q-.198-3.384-1.75-5.9-1.09-1.791-2.4-2.35.65-.248 1.15-.8 1.1-1.048 1.1-2.55 0-1.502-1.1-2.6m.6 2.6q0 1.298-.95 2.2-.802.848-1.9.95v.5q1.68.04 3.05 2.3 1.498 2.434 1.7 5.7-.067.334-1.05.5-1.228.254-3.75.2-4.82-.088-4.9-.85-.053-3.214 1.65-5.6 1.46-2.07 3-2.25V7.3l-.05-.25q-1.257-.009-2.2-.95-.9-.902-.9-2.2t.9-2.25q.952-.9 2.25-.9t2.2.9q.95.952.95 2.25m-3 3.2H5.5q-.048.1-.05.2.003.103.05.15l.05.05.05-.05q.06-.05.05-.15-.003-.103-.1-.2z"/><path fill="url(#a)" d="M5.45 7.3H5.4v.25q-1.54.18-3 2.25Q.697 12.186.75 15.4q.08.762 4.9.85 2.522.054 3.75-.2.983-.166 1.05-.5-.202-3.266-1.7-5.7-1.37-2.26-3.05-2.3V7.3h-.05q.01.1-.05.15l-.05.05-.05-.05q-.047-.047-.05-.15M2.7 14.9q.3-4.25 2.7-5.8-2.4 1.55-2.7 5.8z"/><path fill="url(#b)" d="M7.6 6.1q.95-.902.95-2.2T7.6 1.65q-.902-.9-2.2-.9t-2.25.9q-.9.952-.9 2.25t.9 2.2q.943.941 2.2.95l.05.25h.05q.002-.1.05-.2h.05q.097.097.1.2h.05v-.25q1.098-.102 1.9-.95M3.7 3.95Q3.9 2.65 5 2.1q-1.1.55-1.3 1.85z"/></g><g id="l"><path fill-opacity=".651" d="M7.95 1.3Q6.902.25 5.4.25 3.898.25 2.8 1.3 1.75 2.398 1.75 3.9T2.8 6.45q.66.662 1.45.9Q3.097 7.942 2 9.5.203 12.014.25 15.4q.015 1.25 5.4 1.35 2.577.046 3.85-.2 1.538-.279 1.45-1v-.05q-.198-3.384-1.75-5.9-1.09-1.791-2.4-2.35.65-.248 1.15-.8 1.1-1.048 1.1-2.55 0-1.502-1.1-2.6M5.4.75q1.298 0 2.2.9.95.952.95 2.25T7.6 6.1q-.802.848-1.9.95v.5q1.68.04 3.05 2.3 1.498 2.434 1.7 5.7-.067.334-1.05.5-1.228.254-3.75.2-4.82-.088-4.9-.85-.053-3.214 1.65-5.6 1.46-2.07 3-2.25V7.3l-.05-.25q-1.257-.009-2.2-.95-.9-.902-.9-2.2t.9-2.25q.952-.9 2.25-.9m.15 6.35H5.5q-.048.1-.05.2.003.103.05.15l.05.05.05-.05q.06-.05.05-.15-.003-.103-.1-.2z"/><path fill="url(#a)" d="M5.45 7.3H5.4v.25q-1.54.18-3 2.25Q.697 12.186.75 15.4q.08.762 4.9.85 2.522.054 3.75-.2.983-.166 1.05-.5-.202-3.266-1.7-5.7-1.37-2.26-3.05-2.3V7.3h-.05q.01.1-.05.15l-.05.05-.05-.05q-.047-.047-.05-.15M2.7 14.9q.3-4.25 2.7-5.8-2.4 1.55-2.7 5.8z"/><path fill="url(#b)" d="M7.6 1.65q-.902-.9-2.2-.9t-2.25.9q-.9.952-.9 2.25t.9 2.2q.943.941 2.2.95l.05.25h.05q.002-.1.05-.2h.05q.097.097.1.2h.05v-.25q1.098-.102 1.9-.95.95-.902.95-2.2T7.6 1.65m-3.9 2.3Q3.9 2.65 5 2.1q-1.1.55-1.3 1.85z"/></g><g id="p"><path fill-opacity=".651" d="M7.95 1.3Q6.902.25 5.4.25 3.898.25 2.8 1.3 1.75 2.398 1.75 3.9T2.8 6.45q.66.662 1.45.9Q3.097 7.942 2 9.5.203 12.014.25 15.4q.015 1.25 5.4 1.35 2.577.046 3.85-.2 1.538-.279 1.45-1v-.05q-.198-3.384-1.75-5.9-1.09-1.791-2.4-2.35.65-.248 1.15-.8 1.1-1.048 1.1-2.55 0-1.502-1.1-2.6M5.4.75q1.298 0 2.2.9.95.952.95 2.25T7.6 6.1q-.802.848-1.9.95v.5q1.68.04 3.05 2.3 1.498 2.434 1.7 5.7-.067.334-1.05.5-1.228.254-3.75.2-4.82-.088-4.9-.85-.053-3.214 1.65-5.6 1.46-2.07 3-2.25V7.3l-.05-.25q-1.257-.009-2.2-.95-.9-.902-.9-2.2t.9-2.25q.952-.9 2.25-.9m.15 6.35H5.5q-.048.1-.05.2.003.103.05.15l.05.05.05-.05q.06-.05.05-.15-.003-.103-.1-.2z"/><path fill="url(#a)" d="M5.45 7.3H5.4v.25q-1.54.18-3 2.25Q.697 12.186.75 15.4q.08.762 4.9.85 2.522.054 3.75-.2.983-.166 1.05-.5-.202-3.266-1.7-5.7-1.37-2.26-3.05-2.3V7.3h-.05q.01.1-.05.15l-.05.05-.05-.05q-.047-.047-.05-.15M2.7 14.9q.3-4.25 2.7-5.8-2.4 1.55-2.7 5.8z"/><path fill="url(#b)" d="M7.6 1.65q-.902-.9-2.2-.9t-2.25.9q-.9.952-.9 2.25t.9 2.2q.943.941 2.2.95l.05.25h.05q.002-.1.05-.2h.05q.097.097.1.2h.05v-.25q1.098-.102 1.9-.95.95-.902.95-2.2T7.6 1.65m-3.9 2.3Q3.9 2.65 5 2.1q-1.1.55-1.3 1.85z"/></g><radialGradient id="a" gradientUnits="userSpaceOnUse" cx="0" cy="0" r="9.668" fx="0" fy="0" gradientTransform="matrix(.48356 -.87531 .51459 .28186 8.15 13.8)" spreadMethod="pad"><stop offset="0%" stop-opacity=".412"/><stop offset="100%" stop-color="#013198" stop-opacity="0"/></radialGradient><radialGradient id="b" gradientUnits="userSpaceOnUse" cx="0" cy="0" r="5.021" fx="0" fy="0" gradientTransform="matrix(.77672 -.62984 .4008 .49292 6.9 5.15)" spreadMethod="pad"><stop offset="0%" stop-opacity=".424"/><stop offset="100%" stop-color="#013198" stop-opacity="0"/></radialGradient></defs><use xlink:href="#c" transform="matrix(.81761 0 0 .81747 5.259 2.609)"/><g transform="matrix(.81761 0 0 .81747 4.85 2.2)"><use xlink:href="#d"/><use xlink:href="#e"/><use xlink:href="#f"/></g><use xlink:href="#g" transform="matrix(.81761 0 0 .81747 8.559 3.759)"/><g transform="matrix(.81761 0 0 .81747 8.15 3.35)"><use xlink:href="#h"/><use xlink:href="#i"/><use xlink:href="#j"/></g><g><use xlink:href="#k" transform="matrix(.81761 0 0 .81747 2.009 3.759)"/><g transform="matrix(.81761 0 0 .81747 1.6 3.35)"><use xlink:href="#l"/><use xlink:href="#m"/><use xlink:href="#n"/></g></g><g><use xlink:href="#o" transform="matrix(.81761 0 0 .81747 5.259 4.159)"/><g transform="matrix(.81761 0 0 .81747 4.85 3.75)"><use xlink:href="#p"/><use xlink:href="#q"/><use xlink:href="#r"/></g></g></svg>